<?xml version="1.0" encoding="utf-8"?>
<!-- Generator: Adobe Illustrator 24.1.3, SVG Export Plug-In . SVG Version: 6.00 Build 0)  -->
<svg version="1.1" id="behance-logo" xmlns="http://www.w3.org/2000/svg" xmlns:xlink="http://www.w3.org/1999/xlink" x="0px"
	 y="0px" viewBox="0 0 15.6 15.6" style="enable-background:new 0 0 15.6 15.6;" xml:space="preserve">
<style type="text/css">
	.st0{fill:#C493FF;}
</style>
<g>
	<path class="st0" d="M5.7,6.1H4.4v1.1h1.4C6.7,7.2,6.9,6.1,5.7,6.1z"/>
	<path class="st0" d="M5.7,8.4H4.4v1.1h1.2C6.8,9.5,6.8,8.4,5.7,8.4z"/>
	<path class="st0" d="M10.2,7.2C9.7,7.2,9.3,7.5,9.3,8h1.9C11.1,7.4,10.7,7.2,10.2,7.2z"/>
	<path class="st0" d="M7.8,0C3.5,0,0,3.5,0,7.8s3.5,7.8,7.8,7.8s7.8-3.5,7.8-7.8S12.1,0,7.8,0z M5.7,10.6H3.3V5h2.6c2,0,2.1,2,1,2.6
		C8.2,8.1,8.3,10.6,5.7,10.6z M8.9,5h2.6v0.7H8.9V5z M11,9.5h1.2c-0.2,0.5-0.8,1.1-1.9,1.1S8.2,10,8.2,8.5s0.9-2.2,2-2.2
		c1.2,0,1.9,0.7,2,1.7c0,0.2,0,0.4,0,0.8h-3C9.3,9.9,10.6,10,11,9.5z"/>
</g>
</svg>
