<svg width="16px" height="10px" version="1.1" id="Layer_1" xmlns="http://www.w3.org/2000/svg" xmlns:xlink="http://www.w3.org/1999/xlink" x="0px" y="0px"
   viewBox="0 0 32.4 19.8" style="enable-background:new 0 0 32.4 19.8;" xml:space="preserve">
<style type="text/css">
  .st0{fill:#828282;}
</style>
<g>
  <g>
    <g>
      <g>
        <path class="st0" d="M25.6,4.9c-7.4,0-7.5,7.4-7.5,7.5c0,0-0.5,7.4,7.5,7.4c0,0,6,0.3,6.6-4.4c0.1-0.4-0.3-0.8-0.7-0.8h-2.1
          c-0.3,0-0.6,0.2-0.7,0.5c-0.2,0.6-0.8,1.6-3,1.6c0,0-2.9,0.2-3.3-2.6c-0.1-0.4,0.3-0.8,0.7-0.8h8.7c0.4,0,0.7-0.3,0.7-0.7
          C32.5,10.7,32.1,4.9,25.6,4.9z M22.8,10.8c-0.3,0-0.5-0.3-0.4-0.5c0.3-0.9,1.1-2.5,3.3-2.5c2.3,0,2.8,1.7,2.9,2.5
          c0,0.2-0.2,0.5-0.4,0.5H22.8z M13.8,9c-0.2-0.1-0.3-0.4-0.1-0.5c0.8-0.4,1.8-1.3,1.8-3.3C15.5,1.7,13.1,0,10,0H0.5
          C0.2,0,0,0.2,0,0.5v18.4c0,0.3,0.2,0.5,0.5,0.5h9.6c0,0,6.2,0.2,6.2-5.7C16.3,13.7,16.5,9.9,13.8,9z M4.5,3.8
          c0-0.2,0.2-0.4,0.4-0.4h5.3c0,0,1.4,0,1.4,2s-0.8,2.3-1.7,2.3H4.8c-0.2,0-0.4-0.2-0.4-0.4L4.5,3.8L4.5,3.8z M9.8,16h-5
          c-0.2,0-0.4-0.2-0.4-0.4v-4.5c0-0.2,0.2-0.4,0.4-0.4h5.3c0,0,2.1,0,2,2.7C12.1,15.7,10.6,16,9.8,16z M21.4,0.8v1.7
          c0,0.2,0.2,0.4,0.4,0.4h7.3c0.2,0,0.4-0.2,0.4-0.4V0.8c0-0.2-0.2-0.4-0.4-0.4h-7.3C21.6,0.4,21.4,0.6,21.4,0.8z"/>
      </g>
    </g>
  </g>
</g>
</svg>