<?xml version="1.0" encoding="utf-8"?>
<!-- Generator: Adobe Illustrator 24.1.3, SVG Export Plug-In . SVG Version: 6.00 Build 0)  -->
<svg version="1.1" id="Layer_1" xmlns="http://www.w3.org/2000/svg" xmlns:xlink="http://www.w3.org/1999/xlink" x="0px" y="0px"
	 viewBox="0 0 16 16" style="enable-background:new 0 0 16 16;" xml:space="preserve">
<style type="text/css">
	.st0{fill:#828282;}
	.st1{fill:#FFFFFF;}
</style>
<circle class="st0" cx="8" cy="8" r="7.8"/>
<g>
	<g>
		<g>
			<g>
				<path class="st1" d="M10.8,6.5c-2.1,0-2.1,2.1-2.1,2.1s-0.2,2.1,2.1,2.1c0,0,1.8,0.1,1.9-1.3c0-0.1-0.1-0.3-0.2-0.3h-0.6
					c-0.1,0-0.2,0.1-0.2,0.2c-0.1,0.2-0.3,0.5-0.8,0.5c0,0-0.8,0.1-0.9-0.7c0-0.1,0.1-0.3,0.2-0.3h2.5c0.1,0,0.2-0.1,0.2-0.2
					C12.7,8.3,12.6,6.5,10.8,6.5z M9.9,8.3c-0.1,0-0.2-0.1-0.1-0.2c0.1-0.3,0.3-0.7,0.9-0.7s0.8,0.5,0.8,0.7c0,0.1-0.1,0.2-0.1,0.2
					H9.9z M7.4,7.7c-0.1,0-0.1-0.1,0-0.2c0.3-0.1,0.6-0.4,0.6-0.9c0-1-0.7-1.5-1.6-1.5H3.6c-0.2,0-0.3,0.1-0.3,0.2v5.3
					c0,0,0.1,0.1,0.2,0.1h2.8c0,0,1.8,0,1.8-1.7C8,9.1,8.1,8,7.4,7.7z M4.6,6.2c0-0.1,0.1-0.1,0.2-0.1h1.6c0,0,0.4,0,0.4,0.6
					S6.4,7.4,6.2,7.4H4.7c-0.1,0-0.1-0.1-0.1-0.1V6.2L4.6,6.2z M6.2,9.7H4.7c-0.1,0-0.1-0.1-0.1-0.1V8.4c0-0.1,0.1-0.1,0.1-0.1h1.6
					c0,0,0.6,0,0.6,0.7C6.8,9.7,6.4,9.7,6.2,9.7z M9.5,5.4v0.5C9.5,6,9.6,6,9.6,6h2.1c0.1,0,0.1-0.1,0.1-0.1V5.4
					c0.1-0.1,0-0.2-0.1-0.2h-2C9.6,5.2,9.5,5.3,9.5,5.4z"/>
			</g>
		</g>
	</g>
</g>
</svg>
