<?xml version="1.0" encoding="utf-8"?>
<!-- Generator: Adobe Illustrator 24.1.3, SVG Export Plug-In . SVG Version: 6.00 Build 0)  -->
<svg version="1.1" id="instagram-logo" xmlns="http://www.w3.org/2000/svg" xmlns:xlink="http://www.w3.org/1999/xlink" x="0px"
	 y="0px" viewBox="0 0 550.4 550.4" style="enable-background:new 0 0 550.4 550.4;" xml:space="preserve">
<style type="text/css">
	.st0{fill:#C493FF;}
</style>
<g>
	<path class="st0" d="M337.7,151.8H212.8c-33.7,0-61,27.4-61,61v124.8c0,33.7,27.4,61,61,61h124.8c33.7,0,61-27.4,61-61h0.1V212.8
		C398.7,179.1,371.3,151.8,337.7,151.8z M275.2,355.1c-44.1,0-79.9-35.8-79.9-79.9s35.8-79.9,79.9-79.9s79.9,35.8,79.9,79.9
		S319.3,355.1,275.2,355.1z M355.3,215c-10.5,0-19.1-8.6-19.1-19.1s8.6-19.1,19.1-19.1s19.1,8.6,19.1,19.1S365.8,215,355.3,215z"/>
	<circle class="st0" cx="275.2" cy="275.2" r="48.8"/>
	<path class="st0" d="M275.2,0C123.2,0,0,123.2,0,275.2s123.2,275.2,275.2,275.2s275.2-123.2,275.2-275.2S427.2,0,275.2,0z
		 M429.8,337.7c0,50.8-41.4,92.1-92.1,92.1H212.8c-50.8,0-92.1-41.4-92.1-92.1V212.8c0-50.8,41.3-92.1,92.1-92.1h124.8
		c50.8,0,92.1,41.3,92.2,92.1L429.8,337.7L429.8,337.7z"/>
</g>
</svg>
