<?xml version="1.0" encoding="utf-8"?>
<!-- Generator: Adobe Illustrator 24.1.3, SVG Export Plug-In . SVG Version: 6.00 Build 0)  -->
<svg version="1.1" id="Layer_1" xmlns="http://www.w3.org/2000/svg" xmlns:xlink="http://www.w3.org/1999/xlink" x="0px" y="0px"
	 viewBox="0 0 551 551" style="enable-background:new 0 0 551 551;" xml:space="preserve">
<style type="text/css">
	.st0{fill:#828282;}
	.st1{fill:#FFFFFF;}
</style>
<circle class="st0" cx="275.5" cy="275.5" r="275.2"/>
<g id="Layer_2_1_">
	<g id="Layer_1-2">
		<path class="st1" d="M337.9,121H213.1c-50.8,0-92.1,41.3-92.1,92.1v124.9c0,50.7,41.3,92.1,92.1,92.1h124.9
			c50.7,0,92.1-41.3,92.1-92.1V213.1C430,162.3,388.7,121,337.9,121z M398.9,337.9c0,33.6-27.3,61-61,61H213.1
			c-33.6,0-61-27.3-61-61V213.1c0-33.6,27.3-61,61-61h124.9c33.6,0,61,27.3,61,61V337.9L398.9,337.9z"/>
		<path class="st1" d="M275.5,195.6c-44.1,0-79.9,35.8-79.9,79.9s35.8,79.9,79.9,79.9s79.9-35.8,79.9-79.9S319.6,195.6,275.5,195.6z
			 M275.5,324.3c-27,0-48.8-21.8-48.8-48.8s21.8-48.8,48.8-48.8s48.8,21.8,48.8,48.8l0,0C324.3,302.5,302.5,324.3,275.5,324.3z"/>
		<circle class="st1" cx="355.6" cy="196.2" r="19.1"/>
	</g>
</g>
</svg>
