<?xml version="1.0" encoding="utf-8"?>
<!-- Generator: Adobe Illustrator 24.1.3, SVG Export Plug-In . SVG Version: 6.00 Build 0)  -->
<svg version="1.1" id="Layer_1" xmlns="http://www.w3.org/2000/svg" xmlns:xlink="http://www.w3.org/1999/xlink" x="0px" y="0px"
	 viewBox="0 0 28.8 28.8" style="enable-background:new 0 0 28.8 28.8;" xml:space="preserve">
<style type="text/css">
	.st0{fill:#828282;}
	.st1{fill:#FFFFFF;}
</style>
<circle class="st0" cx="14.4" cy="14.4" r="14.2"/>
<g>
	<g>
		<g>
			<g>
				<path class="st1" d="M21.5,15.9v4.8c0,0.2-0.1,0.2-0.2,0.2h-2.6c-0.2,0-0.2-0.1-0.2-0.2v-4.6c0-1.2-0.4-2-1.5-2
					c-0.8,0-1.3,0.5-1.5,1.1c-0.1,0.2-0.1,0.4-0.1,0.7v4.7c0,0.2-0.1,0.2-0.2,0.2h-2.6c-0.2,0-0.2-0.1-0.2-0.2c0-1.2,0.1-7.1,0-8.5
					c0.2-0.1,0.2-0.2,0.3-0.2h2.5c0.2,0,0.2,0.1,0.2,0.2v1.1c0,0,0,0,0,0.1l0,0v-0.1c0.4-0.7,1.1-1.5,2.7-1.5
					C20.1,11.9,21.5,13.2,21.5,15.9L21.5,15.9z M8.1,21h2.6c0.2,0,0.2-0.1,0.2-0.2v-8.4c-0.1-0.1-0.2-0.2-0.2-0.2H8.2
					C8,12.2,8,12.2,8,12.3v8.4C8,20.9,8,21,8.1,21z"/>
			</g>
		</g>
	</g>
	<g>
		<circle class="st1" cx="9.3" cy="9.4" r="1.6"/>
	</g>
</g>
</svg>
