<?xml version="1.0" encoding="utf-8"?>
<!-- Generator: Adobe Illustrator 24.1.3, SVG Export Plug-In . SVG Version: 6.00 Build 0)  -->
<svg version="1.1" id="linkedin-logo" xmlns="http://www.w3.org/2000/svg" xmlns:xlink="http://www.w3.org/1999/xlink" x="0px"
	 y="0px" viewBox="0 0 28.4 28.4" style="enable-background:new 0 0 28.4 28.4;" xml:space="preserve">
<style type="text/css">
	.st0{fill:#C493FF;}
</style>
<path class="st0" d="M14.2,0C6.4,0,0,6.4,0,14.2s6.4,14.2,14.2,14.2S28.4,22,28.4,14.2C28.4,6.4,22,0,14.2,0z M10.7,20.6
	c0,0.1,0,0.2-0.2,0.2H7.9c-0.1,0-0.1-0.1-0.1-0.3v-8.4C7.8,12,7.8,12,8,12h2.5c0,0,0.1,0.1,0.2,0.2V20.6z M9.1,10.8
	c-0.9,0-1.6-0.7-1.6-1.6c0-0.9,0.7-1.6,1.6-1.6s1.6,0.7,1.6,1.6C10.7,10.1,10,10.8,9.1,10.8z M21.3,20.5c0,0.2-0.1,0.2-0.2,0.2h-2.6
	c-0.2,0-0.2-0.1-0.2-0.2v-4.6c0-1.2-0.4-2-1.5-2c-0.8,0-1.3,0.5-1.5,1.1c-0.1,0.2-0.1,0.4-0.1,0.7v4.7c0,0.2-0.1,0.2-0.2,0.2h-2.6
	c-0.2,0-0.2-0.1-0.2-0.2c0-1.2,0.1-7.1,0-8.5c0.2-0.1,0.2-0.2,0.3-0.2H15c0.2,0,0.2,0.1,0.2,0.2V13c0.4-0.7,1.1-1.5,2.7-1.5
	c2,0.2,3.4,1.5,3.4,4.2C21.3,15.7,21.3,20.5,21.3,20.5z"/>
</svg>
