<?xml version="1.0" encoding="utf-8"?>
<!-- Generator: Adobe Illustrator 24.1.2, SVG Export Plug-In . SVG Version: 6.00 Build 0)  -->
<svg version="1.1" id="Layer_1" xmlns="http://www.w3.org/2000/svg" xmlns:xlink="http://www.w3.org/1999/xlink" x="0px" y="0px"
	 viewBox="0 0 28.8 27.5" style="enable-background:new 0 0 28.8 27.5;" xml:space="preserve">
<style type="text/css">
	.st0{fill:#828282;}
</style>
<g>
	<g>
		<g>
			<g>
				<path class="st0" d="M28.8,16.9V27c0,0.3-0.2,0.5-0.5,0.5H23c-0.3,0-0.5-0.2-0.5-0.5v-9.5c0-2.5-0.9-4.2-3.1-4.2
					c-1.7,0-2.7,1.1-3.2,2.3C16,16,16,16.5,16,17.1V27c0,0.3-0.2,0.5-0.5,0.5h-5.3c-0.3,0-0.5-0.2-0.5-0.5c0-2.5,0.1-14.7,0-17.6
					C10,9.2,10.2,9,10.4,9h5.2c0.3,0,0.5,0.2,0.5,0.5v2.2c0,0,0,0,0,0.1l0,0v-0.1c0.8-1.3,2.3-3.1,5.6-3.1
					C25.7,8.5,28.8,11.2,28.8,16.9L28.8,16.9z M0.9,27.5h5.3c0.3,0,0.5-0.2,0.5-0.5V9.4C6.6,9.2,6.4,9,6.1,9H0.9
					C0.6,9,0.4,9.2,0.4,9.4V27C0.4,27.3,0.6,27.5,0.9,27.5z"/>
			</g>
		</g>
	</g>
	<g>
		<circle class="st0" cx="3.3" cy="3.3" r="3.3"/>
	</g>
</g>
</svg>
