<?xml version="1.0" encoding="utf-8"?>
<!-- Generator: Adobe Illustrator 24.1.3, SVG Export Plug-In . SVG Version: 6.00 Build 0)  -->
<svg version="1.1" id="Layer_1" xmlns="http://www.w3.org/2000/svg" xmlns:xlink="http://www.w3.org/1999/xlink" x="0px" y="0px"
	 viewBox="0 0 2500 2500" style="enable-background:new 0 0 2500 2500;" xml:space="preserve">
<style type="text/css">
	.st0{fill:#828282;}
	.st1{fill:#FFFFFF;}
</style>
<circle class="st0" cx="1247.5" cy="1250" r="1250"/>
<path class="st1" d="M375.4,1326.2c-3.8,0-6.7,2.9-7.2,7l-13.1,99.3l13.1,97.7c0.5,4.1,3.4,7,7.2,7c3.7,0,6.5-2.9,7.2-6.9l0,0l0,0
	l15.5-97.7l-15.5-99.4C381.9,1329.1,378.9,1326.2,375.4,1326.2L375.4,1326.2z M449,1271.9c-0.6-4.3-3.7-7.3-7.4-7.3s-6.9,3-7.4,7.3
	c0,0.1-17.6,160.8-17.6,160.8l17.6,157.2c0.5,4.2,3.7,7.3,7.4,7.3c3.8,0,6.8-3,7.4-7.3l20.1-157.3L449,1271.9L449,1271.9z
	 M726.3,1123.7c-7.3,0-13.2,5.9-13.5,13.4l-14.1,295.7l14.1,191.1c0.4,7.4,6.3,13.4,13.5,13.4c7.2,0,13.1-5.9,13.5-13.4v0.1
	l15.8-191.2L739.8,1137C739.4,1129.6,733.4,1123.7,726.3,1123.7z M582.7,1226.4c-5.5,0-10.1,4.5-10.5,10.3l-15.8,196l15.8,189.6
	c0.4,5.8,4.9,10.3,10.5,10.3c5.5,0,10-4.5,10.5-10.3l17.9-189.6l-17.9-196C592.7,1230.9,588.2,1226.4,582.7,1226.4z M872,1637.2
	c9,0,16.2-7.3,16.6-16.5l13.7-187.8l-13.6-393.7c-0.4-9.2-7.6-16.5-16.6-16.5c-9.1,0-16.3,7.3-16.6,16.5l-12.3,393.7l12.2,187.9
	C855.8,1630.1,863,1637.2,872,1637.2z M1170.6,1638.1c12.3,0,22.5-10.1,22.7-22.6v0.2v-0.2l9.6-182.6l-9.5-454.7
	c-0.2-12.5-10.4-22.6-22.7-22.6c-12.3,0-22.6,10.1-22.7,22.6l-8.6,454.6c0,0.3,8.6,182.8,8.6,182.8
	C1148.1,1628,1158.3,1638.1,1170.6,1638.1z M1020.2,1637.4c10.8,0,19.4-8.6,19.6-19.5v0.2l11.7-185.1l-11.7-396.6
	c-0.3-10.9-9-19.5-19.6-19.5c-10.8,0-19.5,8.6-19.7,19.5l-10.4,396.5l10.4,185C1000.7,1628.8,1009.4,1637.4,1020.2,1637.4
	L1020.2,1637.4z M654.2,1635.7c6.4,0,11.6-5.1,12-11.8l16.9-191.2l-16.9-181.8c-0.4-6.7-5.6-11.8-12-11.8s-11.6,5.1-12,11.9
	l-14.9,181.8l14.9,191.2C642.5,1630.6,647.7,1635.7,654.2,1635.7z M511.8,1625.2c4.7,0,8.4-3.7,9-8.7l19-183.8l-19-190.7
	c-0.5-5.1-4.3-8.8-9.1-8.8c-4.8,0-8.5,3.8-9,8.8l-16.7,190.7l16.7,183.7C503.3,1621.6,507.1,1625.2,511.8,1625.2L511.8,1625.2z
	 M1095.2,1029.8c-11.7,0-21,9.2-21.2,21.2l-9.4,382.1l9.4,183.9c0.2,11.7,9.5,21,21.2,21c11.6,0,20.9-9.2,21.2-21.2v0.2l10.6-183.9
	l-10.6-382.2C1116,1039,1106.7,1029.8,1095.2,1029.8L1095.2,1029.8z M798.8,1637.6c8,0,14.7-6.5,15.1-15l14.8-189.9l-14.8-363.3
	c-0.4-8.3-7-15-15.1-15c-8.1,0-14.8,6.5-15.1,15l-13.1,363.4l13.1,190C784.1,1631.1,790.8,1637.6,798.8,1637.6z M964,1619.8
	L964,1619.8l12.6-186.8L964,1025.9c-0.3-10.1-8.3-18-18.1-18c-9.9,0-17.8,7.9-18.1,18l-11.3,407l11.3,186.8
	c0.3,10,8.2,17.9,18.1,17.9C955.7,1637.6,963.6,1629.8,964,1619.8L964,1619.8L964,1619.8z M1924.8,1198.3
	c-30.1,0-58.9,6.1-85.1,17.1c-17.6-198.4-183.9-354.1-386.9-354.1c-49.7,0-98.1,9.8-140.9,26.3c-16.6,6.5-21.1,13-21.2,25.9v698.7
	c0.2,13.4,10.6,24.7,23.8,26c0.5,0.1,606.3,0.4,610.2,0.4c121.6,0,220.2-98.6,220.2-220.2C2145,1296.8,2046.3,1198.3,1924.8,1198.3
	L1924.8,1198.3z M1245.8,912.9c-13.3,0-24,10.8-24.3,24.2l-10,496l10,180c0.2,13.2,11,24,24.3,24c13.2,0,24-10.8,24.2-24.2v0.2
	l10.8-180l-10.8-496C1269.7,923.8,1259,912.9,1245.8,912.9L1245.8,912.9z"/>
</svg>
