<?xml version="1.0" encoding="utf-8"?>
<!-- Generator: Adobe Illustrator 24.1.3, SVG Export Plug-In . SVG Version: 6.00 Build 0)  -->
<svg version="1.1" id="soundcloud-logo" xmlns="http://www.w3.org/2000/svg" xmlns:xlink="http://www.w3.org/1999/xlink" x="0px"
	 y="0px" viewBox="0 0 2500 2500" style="enable-background:new 0 0 2500 2500;" xml:space="preserve">
<style type="text/css">
	.st0{fill:#C493FF;}
</style>
<path class="st0" d="M1247.5,0C557.1,0-2.5,559.6-2.5,1250s559.6,1250,1250,1250s1250-559.6,1250-1250S1937.9,0,1247.5,0z
	 M382.6,1530.3c-0.7,4-3.5,6.9-7.2,6.9c-3.8,0-6.7-2.9-7.2-7l-13.1-97.7l13.1-99.3c0.5-4.1,3.4-7,7.2-7c3.5,0,6.5,2.9,7.2,7
	l15.5,99.4L382.6,1530.3z M449,1589.9c-0.6,4.3-3.6,7.3-7.4,7.3c-3.7,0-6.9-3.1-7.4-7.3l-17.6-157.2c0,0,17.6-160.7,17.6-160.8
	c0.5-4.3,3.7-7.3,7.4-7.3c3.7,0,6.8,3,7.4,7.3l20.1,160.7L449,1589.9z M520.8,1616.5c-0.6,5-4.3,8.7-9,8.7s-8.5-3.6-9.1-8.8
	L486,1432.7l16.7-190.7c0.5-5,4.2-8.8,9-8.8s8.6,3.7,9.1,8.8l19,190.7L520.8,1616.5z M593.2,1622.3c-0.5,5.8-5,10.3-10.5,10.3
	c-5.6,0-10.1-4.5-10.5-10.3l-15.8-189.6l15.8-196c0.4-5.8,5-10.3,10.5-10.3s10,4.5,10.5,10.3l17.9,196L593.2,1622.3z M666.2,1623.9
	c-0.4,6.7-5.6,11.8-12,11.8c-6.5,0-11.7-5.1-12-11.7l-14.9-191.2l14.9-181.8c0.4-6.8,5.6-11.9,12-11.9s11.6,5.1,12,11.8l16.9,181.8
	L666.2,1623.9z M739.8,1624L739.8,1624c-0.4,7.4-6.3,13.3-13.5,13.3s-13.1-6-13.5-13.4l-14.1-191.1l14.1-295.7
	c0.3-7.5,6.2-13.4,13.5-13.4c7.1,0,13.1,5.9,13.5,13.3l15.8,295.8L739.8,1624z M813.9,1622.6c-0.4,8.5-7.1,15-15.1,15
	s-14.7-6.5-15.1-14.8l-13.1-190l13.1-363.4c0.3-8.5,7-15,15.1-15s14.7,6.7,15.1,15l14.8,363.3L813.9,1622.6z M888.6,1620.7
	c-0.4,9.2-7.6,16.5-16.6,16.5s-16.2-7.1-16.6-16.4l-12.2-187.9l12.3-393.7c0.3-9.2,7.5-16.5,16.6-16.5c9,0,16.2,7.3,16.6,16.5
	l13.6,393.7L888.6,1620.7z M964,1619.8c-0.4,10-8.3,17.8-18.1,17.8c-9.9,0-17.8-7.9-18.1-17.9l-11.3-186.8l11.3-407
	c0.3-10.1,8.2-18,18.1-18c9.8,0,17.8,7.9,18.1,18l12.6,407.1L964,1619.8z M1039.8,1618.1v-0.2c-0.2,10.9-8.8,19.5-19.6,19.5
	s-19.5-8.6-19.7-19.5l-10.4-185l10.4-396.5c0.2-10.9,8.9-19.5,19.7-19.5c10.6,0,19.3,8.6,19.6,19.5l11.7,396.6L1039.8,1618.1z
	 M1116.4,1617v-0.2c-0.3,12-9.6,21.2-21.2,21.2c-11.7,0-21-9.3-21.2-21l-9.4-183.9l9.4-382.1c0.2-12,9.5-21.2,21.2-21.2
	c11.5,0,20.8,9.2,21.2,21.1l10.6,382.2L1116.4,1617z M1193.3,1615.5c-0.2,12.5-10.4,22.6-22.7,22.6c-12.3,0-22.5-10.1-22.6-22.5
	c0,0-8.6-182.5-8.6-182.8l8.6-454.6c0.1-12.5,10.4-22.6,22.7-22.6c12.3,0,22.5,10.1,22.7,22.6l9.5,454.7L1193.3,1615.5z
	 M1270,1613.1v-0.2c-0.2,13.4-11,24.2-24.2,24.2c-13.3,0-24.1-10.8-24.3-24l-10-180l10-496c0.3-13.4,11-24.2,24.3-24.2
	c13.2,0,23.9,10.9,24.2,24.2l10.8,496L1270,1613.1z M1924.7,1638.6c-3.9,0-609.7-0.3-610.2-0.4c-13.2-1.3-23.6-12.6-23.8-26V913.5
	c0.1-12.9,4.6-19.4,21.2-25.9c42.8-16.5,91.2-26.3,140.9-26.3c203,0,369.3,155.7,386.9,354.1c26.2-11,55-17.1,85.1-17.1
	c121.5,0,220.2,98.5,220.1,220.1C2144.9,1540,2046.3,1638.6,1924.7,1638.6z"/>
</svg>
