<?xml version="1.0" encoding="utf-8"?>
<!-- Generator: Adobe Illustrator 24.1.2, SVG Export Plug-In . SVG Version: 6.00 Build 0)  -->
<svg version="1.1" id="Layer_1" xmlns="http://www.w3.org/2000/svg" xmlns:xlink="http://www.w3.org/1999/xlink" x="0px" y="0px"
	 viewBox="0 0 2500 1085.1" style="enable-background:new 0 0 2500 1085.1;" xml:space="preserve">
<style type="text/css">
	.st0{fill:#828282;}
</style>
<linearGradient id="SVGID_1_" gradientUnits="userSpaceOnUse" x1="-255.7277" y1="232.5646" x2="-255.7277" y2="272.9473" gradientTransform="matrix(26.8839 0 0 26.8839 8124.9502 -6252.2344)">
	<stop  offset="0" style="stop-color:#F79810"/>
	<stop  offset="1" style="stop-color:#F8310E"/>
</linearGradient>
<path class="st0" d="M28.4,649.3c-5.2,0-9.4,4-10,9.8L0.1,797.9l18.3,136.5c0.7,5.8,4.8,9.8,10,9.8c5.1,0,9.2-4,10-9.7v0v0
	l21.7-136.5L38.4,659.1C37.6,653.3,33.4,649.3,28.4,649.3L28.4,649.3z M131.2,573.4c-0.9-6-5.1-10.1-10.4-10.1
	c-5.3,0-9.7,4.2-10.4,10.1c0,0.1-24.6,224.5-24.6,224.5l24.6,219.5c0.7,5.9,5.1,10.1,10.4,10.1c5.2,0,9.5-4.1,10.4-10.1l28-219.6
	L131.2,573.4L131.2,573.4z M518.5,366.3c-10.1,0-18.4,8.3-18.9,18.7l-19.6,413l19.6,266.9c0.5,10.4,8.8,18.7,18.9,18.7
	c10,0,18.3-8.3,18.9-18.7v0.1l22.1-267l-22.1-413C536.8,374.6,528.5,366.3,518.5,366.3z M318,509.9c-7.7,0-14.1,6.2-14.7,14.4
	l-22,273.7l22,264.8c0.6,8.2,6.9,14.4,14.7,14.4c7.7,0,14-6.2,14.7-14.4L357.7,798l-25.1-273.7C332,516.1,325.7,509.9,318,509.9z
	 M722.1,1083.7c12.5,0,22.7-10.1,23.2-23l19.2-262.4l-19.2-549.9c-0.5-12.9-10.7-23-23.2-23c-12.6,0-22.8,10.1-23.2,23l-17,549.9
	l17,262.5C699.4,1073.6,709.5,1083.7,722.1,1083.7z M1139.1,1084.9c17.2,0,31.4-14.2,31.7-31.6v0.2v-0.2l13.4-254.9l-13.4-635.1
	c-0.3-17.4-14.5-31.6-31.7-31.6c-17.2,0-31.5,14.2-31.7,31.6l-12,634.9c0,0.4,12,255.3,12,255.3
	C1107.6,1070.8,1121.9,1084.9,1139.1,1084.9z M929,1083.9c15,0,27-12,27.4-27.3v0.2l16.3-258.5l-16.3-553.9
	c-0.4-15.3-12.5-27.3-27.4-27.3c-15.1,0-27.2,12-27.5,27.3L887,798.3l14.5,258.4C901.9,1071.9,913.9,1083.9,929,1083.9L929,1083.9z
	 M417.9,1081.5c8.9,0,16.1-7.1,16.8-16.5l23.6-267l-23.6-254c-0.6-9.4-7.8-16.5-16.8-16.5c-9,0-16.2,7.1-16.8,16.6L380.3,798
	l20.8,267C401.6,1074.4,408.8,1081.5,417.9,1081.5z M219,1066.9c6.5,0,11.8-5.1,12.5-12.2L258.1,798l-26.5-266.4
	c-0.8-7.1-6-12.3-12.6-12.3c-6.6,0-11.9,5.2-12.5,12.3L183.2,798l23.3,256.6C207.1,1061.7,212.4,1066.9,219,1066.9L219,1066.9z
	 M1033.7,235.2c-16.3,0-29.3,12.9-29.6,29.5l-13.2,533.7l13.2,256.8c0.3,16.3,13.3,29.3,29.6,29.3c16.2,0,29.2-12.9,29.6-29.5v0.2
	l14.8-256.8l-14.8-533.8C1062.8,248.1,1049.9,235.2,1033.7,235.2L1033.7,235.2z M619.9,1084.2c11.2,0,20.5-9.2,21.1-20.9l20.6-265.2
	L641,290.7c-0.6-11.7-9.8-20.9-21.1-20.9c-11.3,0-20.6,9.2-21.1,20.9l-18.3,507.5l18.3,265.3
	C599.3,1075.1,608.6,1084.2,619.9,1084.2z M850.5,1059.2v-0.1l17.7-260.8l-17.7-568.4c-0.4-14.1-11.6-25.2-25.3-25.2
	c-13.8,0-24.9,11-25.3,25.2l-15.8,568.4l15.8,260.9c0.4,14,11.5,25,25.3,25c13.8,0,24.8-11,25.3-25.1L850.5,1059.2L850.5,1059.2z
	 M2192.4,470.6c-42.1,0-82.3,8.5-118.9,23.9C2049,217.4,1816.7,0,1533.2,0c-69.4,0-137,13.7-196.7,36.7c-23.2,9-29.4,18.2-29.6,36.2
	v975.9c0.2,18.8,14.8,34.5,33.2,36.3c0.8,0.1,846.8,0.5,852.3,0.5c169.8,0,307.5-137.7,307.5-307.5
	C2499.9,608.3,2362.2,470.6,2192.4,470.6L2192.4,470.6z M1244.1,72c-18.5,0-33.6,15.2-33.9,33.8l-13.9,692.7l13.9,251.4
	c0.2,18.4,15.4,33.5,33.9,33.5c18.4,0,33.6-15.1,33.8-33.8v0.3l15.1-251.4l-15.1-692.7C1277.6,87.2,1262.5,72,1244.1,72L1244.1,72z"
	/>
</svg>
